<svg width="64" height="72" viewBox="0 0 64 72" fill="none" xmlns="http://www.w3.org/2000/svg">
<path fill-rule="evenodd" clip-rule="evenodd" d="M11.9046 66.8757H27.3664C27.9489 66.8757 28.421 67.3479 28.421 67.9305C28.421 68.5131 27.9489 68.9852 27.3663 68.9852H11.9045C5.66787 68.9852 0.593964 63.9113 0.593964 57.6747V17.4839C0.593964 11.248 5.66787 6.1748 11.9045 6.1748H21.6948C21.427 7.20589 21.0643 7.65278 20.1664 8.28405H11.9046C6.83113 8.28405 2.70349 12.4111 2.70349 17.4838V57.6746C2.70349 62.7481 6.83113 66.8757 11.9046 66.8757ZM46.914 6.1748H52.0952C58.3318 6.1748 63.4057 11.248 63.406 17.4841V57.6748C63.406 63.9114 58.332 68.9854 52.0954 68.9854H37.8113L39.0258 70.1999C39.4377 70.6118 39.4377 71.2795 39.0258 71.6916C38.8198 71.8974 38.5498 72.0004 38.28 72.0004C38.0101 72.0004 37.7401 71.8974 37.5341 71.6916L34.5292 68.6867C34.1141 68.3105 34.1045 67.5721 34.5202 67.1827L37.5341 64.1688C37.946 63.757 38.6137 63.757 39.0257 64.1688C39.4376 64.5807 39.4376 65.2484 39.0257 65.6604L37.8103 66.8758H52.0952C57.1686 66.8758 61.2963 62.7482 61.2963 57.6747V17.4839C61.2963 12.4113 57.1686 8.28419 52.0952 8.28419H46.914C46.3313 8.28419 45.8593 7.81211 45.8593 7.2295C45.8593 6.64688 46.3313 6.1748 46.914 6.1748Z" fill="#0C93F4"/>
<path fill-rule="evenodd" clip-rule="evenodd" d="M18.939 12.5294C18.939 15.7694 20.3893 17.368 21.3511 18.0719C21.1872 19.2346 21.514 20.3007 22.3056 21.1351C22.626 21.473 22.973 21.7198 23.2636 21.891C23.2907 22.1102 23.3292 22.3199 23.3769 22.522H21.5599C19.9129 22.522 18.573 23.8619 18.573 25.5089V28.2009C18.573 28.7835 19.0451 29.2555 19.6277 29.2555C20.2103 29.2555 20.6824 28.7835 20.6824 28.2009V25.5089C20.6824 25.0251 21.0761 24.6314 21.5599 24.6314H24.5385C25.6311 25.7332 27.4926 25.9163 28.583 25.7752L28.8077 26.8496C29.0177 27.8532 29.9142 28.5815 30.9395 28.5815C30.9528 28.5815 30.966 28.5806 30.9791 28.5797C30.9844 28.5793 30.9897 28.5789 30.995 28.5786C30.9995 28.5784 31.004 28.5781 31.0085 28.578V39.8694H21.5599C21.0761 39.8694 20.6824 39.4758 20.6824 38.992V33.1301C20.6824 32.5475 20.2103 32.0754 19.6277 32.0754C19.0451 32.0754 18.573 32.5475 18.573 33.1301V38.992C18.573 40.6389 19.9129 41.9788 21.5599 41.9788H42.5651C44.2121 41.9788 45.552 40.6389 45.552 38.992V25.5089C45.552 23.8619 44.2121 22.522 42.5651 22.522H40.7482C40.7959 22.3199 40.8344 22.1101 40.8616 21.891C41.1521 21.7198 41.4992 21.473 41.8195 21.1351C42.6111 20.3005 42.9379 19.2344 42.7741 18.0719C43.7358 17.368 45.1861 15.7694 45.1861 12.5294C45.1861 9.107 43.5423 7.59218 42.5532 6.9903C42.4893 3.44766 38.4271 -0.000757943 34.9145 0.0126015C33.8646 -0.0755707 32.8061 0.310728 32.0625 1.06406C31.3189 0.310868 30.261 -0.0765551 29.2106 0.0126015C27.6519 0.144368 25.4282 0.67987 23.6856 2.48367C22.4332 3.77996 21.9099 5.15444 21.6947 6.17453C19.94 7.79192 18.939 9.89667 18.939 12.5294ZM29.3884 2.11453C28.1895 2.21578 26.4905 2.61628 25.2027 3.94927C23.2637 6.10985 22.9294 8.74854 25.3066 11.2188C25.7483 11.5986 25.7982 12.2645 25.4184 12.706C25.2098 12.9485 24.9149 13.0729 24.6185 13.0729C24.3748 13.0729 24.1301 12.9891 23.931 12.8178C22.7593 11.8098 22.1656 10.5605 21.8643 9.54167C21.4382 10.1234 21.0481 11.0575 21.0481 12.5298C21.0481 15.671 22.7726 16.5071 22.9314 16.5773C23.4763 16.7655 23.7349 17.3453 23.553 17.8937C23.3029 18.6477 23.3929 19.2167 23.8361 19.684C24.1816 20.0484 24.6141 20.2157 24.6182 20.2173C25.0284 20.3615 25.3078 20.7428 25.3222 21.1775C25.2185 23.8583 27.8376 23.9212 29.4041 23.5083C29.5971 23.5083 29.7886 23.5608 29.9557 23.6633C30.2034 23.815 30.3795 24.0618 30.439 24.3462L30.8723 26.4179C30.8789 26.4495 30.9073 26.4724 30.9395 26.4724C30.9772 26.4724 31.0078 26.4418 31.0078 26.4039V15.9145C30.5581 15.9903 30.1987 16.2114 29.9066 16.586C29.5121 17.0919 29.3943 17.6874 29.3932 17.6933C29.3033 18.2049 28.8595 18.562 28.3577 18.562C28.2968 18.562 28.2348 18.5566 28.1727 18.5458C27.5989 18.445 27.2163 17.8943 27.3171 17.3205C27.3355 17.2153 27.5166 16.2674 28.1779 15.375C28.8751 14.4343 29.8554 13.8939 31.008 13.7949V3.62049C31.0286 2.76985 30.2375 2.02088 29.3884 2.11453ZM33.6081 2.50266C33.9182 2.21677 34.3239 2.07867 34.7369 2.11453C39.2562 2.33095 42.6615 7.45212 38.8182 11.2185C38.3765 11.5983 38.3265 12.2643 38.7064 12.7057C38.9149 12.9483 39.2098 13.0726 39.5062 13.0726C39.7498 13.0726 39.9946 12.9887 40.1938 12.8175C41.366 11.8091 41.9597 10.559 42.2608 9.53984C42.7953 10.2669 43.0766 11.2912 43.0766 12.5295C43.0766 15.6707 41.3521 16.5069 41.1933 16.577C40.6484 16.7652 40.3898 17.345 40.5718 17.8934C41.0987 19.4822 39.8826 20.0761 39.5065 20.217C39.0963 20.3613 38.8169 20.7425 38.8025 21.1772C38.9377 23.6598 36.4551 23.9872 35.002 23.546C34.7213 23.4678 34.42 23.5086 34.1705 23.6605C33.921 23.8121 33.7457 24.0603 33.6859 24.3459L33.2525 26.4177C33.2459 26.4492 33.2177 26.4721 33.1855 26.4721C33.149 26.4721 33.1196 26.443 33.1178 26.407L33.1171 15.9145C33.5668 15.9903 33.9262 16.2114 34.2184 16.5857C34.6063 17.083 34.7267 17.6669 34.7317 17.6922C34.8245 18.2004 35.2678 18.5575 35.768 18.5575C35.8286 18.5575 35.8901 18.5523 35.9518 18.5414C36.5254 18.4406 36.9089 17.894 36.8081 17.3201C36.7896 17.2149 36.6085 16.2669 35.9471 15.3745C35.2501 14.4339 34.2695 13.8933 33.1171 13.7943V3.62007C33.1172 3.19046 33.2916 2.79361 33.6081 2.50266ZM43.4426 38.9923V25.5091C43.4426 25.0254 43.0489 24.6316 42.565 24.6315H39.5865C38.4946 25.733 36.6324 25.9158 35.542 25.7755L35.3173 26.8496C35.1076 27.8531 34.2111 28.5817 33.1857 28.5817C33.1726 28.5817 33.1597 28.5808 33.1467 28.5799C33.1372 28.5792 33.1276 28.5786 33.1179 28.5783V39.8697H42.5651C43.0489 39.8697 43.4426 39.4761 43.4426 38.9923ZM25.5951 31.8826H23.4265C22.8439 31.8826 22.3718 31.4105 22.3718 30.8279C22.3718 30.2453 22.8439 29.7732 23.4265 29.7732H25.5951C26.1777 29.7732 26.6498 30.2453 26.6498 30.8279C26.6498 31.4105 26.1777 31.8826 25.5951 31.8826ZM28.2639 35.4752H23.4265C22.8439 35.4752 22.3718 35.0031 22.3718 34.4205C22.3718 33.8379 22.8439 33.3658 23.4265 33.3658H28.2639C28.8465 33.3658 29.3186 33.8379 29.3186 34.4205C29.3186 35.0031 28.8465 35.4752 28.2639 35.4752ZM40.699 33.3658H35.8616C35.279 33.3658 34.8069 33.8379 34.8069 34.4205C34.8069 35.0031 35.279 35.4752 35.8616 35.4752H40.699C41.2816 35.4752 41.7536 35.0031 41.7536 34.4205C41.7536 33.8379 41.2816 33.3658 40.699 33.3658ZM34.8069 30.8279C34.8069 30.2453 35.279 29.7732 35.8616 29.7732H40.699C41.2816 29.7732 41.7536 30.2453 41.7536 30.8279C41.7536 31.4105 41.2816 31.8826 40.699 31.8826H35.8616C35.279 31.8826 34.8069 31.4105 34.8069 30.8279ZM27.0828 50.9649C27.0828 52.9102 26.2408 54.7598 24.773 56.0398C24.2473 56.4981 23.9457 57.1569 23.9458 57.847V57.8475V57.8481V59.9173C23.9458 61.9004 22.3323 63.5139 20.3492 63.5139C18.3661 63.5139 16.7525 61.9005 16.7525 59.9173V57.8481C16.7525 57.163 16.4398 56.494 15.8944 56.0127C14.3746 54.6712 13.5456 52.7393 13.6201 50.7121C13.7519 47.1237 16.7645 44.2312 20.351 44.2312L20.4229 44.2315C24.0952 44.2711 27.0828 47.2918 27.0828 50.9649ZM20.3507 46.3406C17.8872 46.3406 15.8186 48.3261 15.7281 50.7896C15.6769 52.1824 16.2461 53.5097 17.2901 54.4312C18.0124 55.0686 18.5119 55.8962 18.7331 56.7934H21.9622C22.1797 55.8936 22.673 55.0723 23.3868 54.4499C24.3951 53.5706 24.9734 52.3004 24.9734 50.9649C24.9734 48.4424 22.9219 46.368 20.4001 46.3409C20.3836 46.3406 20.367 46.3406 20.3507 46.3406ZM20.349 61.4045C21.1692 61.4045 21.8363 60.7374 21.8363 59.9173V58.9028H18.8618V59.9173C18.8618 60.7374 19.5289 61.4045 20.349 61.4045ZM53.5661 47.4861V57.162C53.5661 58.9568 52.106 60.4171 50.3111 60.4169H34.115C32.3204 60.4169 30.8601 58.9568 30.8601 57.162V47.4861C30.8601 45.6915 32.3202 44.2312 34.115 44.2312H50.3111C52.1058 44.2312 53.5661 45.6913 53.5661 47.4861ZM32.9693 47.4861V57.162C32.9693 57.7937 33.4833 58.3077 34.115 58.3075H50.3111C50.9428 58.3075 51.4567 57.7937 51.4567 57.162V47.4861C51.4567 46.8544 50.9428 46.3406 50.3111 46.3406H34.1149C33.4832 46.3406 32.9693 46.8544 32.9693 47.4861ZM45.0362 50.6405L41.9076 48.4721C41.3056 48.0548 40.5282 48.0066 39.8791 48.3463C39.2301 48.6862 38.8269 49.3524 38.8269 50.085V54.4221C38.8269 55.1547 39.2301 55.8209 39.8792 56.1608C40.1665 56.3111 40.479 56.3856 40.7902 56.3856C41.1821 56.3856 41.5722 56.2676 41.9076 56.035L45.0361 53.8667C45.5651 53.5003 45.8808 52.8971 45.8808 52.2538C45.881 51.6104 45.5653 51.0071 45.0362 50.6405ZM40.9363 54.1419V50.3654L43.6606 52.2538L40.9363 54.1419Z" fill="#2D2E2E"/>
</svg>
