<svg width="57" height="72" viewBox="0 0 57 72" fill="none" xmlns="http://www.w3.org/2000/svg">
<path fill-rule="evenodd" clip-rule="evenodd" d="M7.46218 7.20028C12.1749 2.55712 18.4318 0 25.0797 0C38.9085 0 50.1592 11.2507 50.1592 25.0796C50.1592 31.4025 47.7991 37.4418 43.5134 42.0851C42.0631 43.6563 40.9284 45.5181 40.1408 47.6184L37.6719 54.2021C37.6203 54.3396 37.5611 54.4731 37.4952 54.602H38.1841C38.7666 54.602 39.2388 55.0742 39.2388 55.6567C39.2388 56.2392 38.7666 56.7114 38.1841 56.7114H34.8707V58.9701H34.9081C35.4906 58.9701 35.9628 59.4423 35.9628 60.0248C35.9628 60.6073 35.4906 61.0795 34.9081 61.0795H34.8707V62.2835C34.8707 63.6864 33.9531 64.8789 32.6866 65.2923V65.3202C32.6866 69.0033 29.6901 71.9999 26.007 71.9999H24.1524C20.4693 71.9999 17.4727 69.0033 17.4727 65.3202V65.2923C16.2062 64.8787 15.2887 63.6862 15.2887 62.2835V61.0795H15.2513C14.6688 61.0795 14.1966 60.6073 14.1966 60.0248C14.1966 59.4423 14.6688 58.9701 15.2513 58.9701H15.2887V56.7114H11.9753C11.3928 56.7114 10.9206 56.2392 10.9206 55.6567C10.9206 55.0742 11.3928 54.602 11.9753 54.602H12.6642C12.5981 54.4731 12.539 54.3398 12.4874 54.2021L9.91496 47.342C9.1982 45.4305 8.09246 43.6555 6.62884 42.0664C2.29112 37.3572 -0.0625235 31.2338 0.00146084 24.824C0.0499765 19.9463 1.48871 15.237 4.16199 11.2051C4.48402 10.7197 5.13835 10.5872 5.62393 10.909C6.10937 11.231 6.24198 11.8855 5.92009 12.3709C3.47251 16.0623 2.15527 20.3759 2.1107 24.8451C2.05205 30.716 4.2077 36.3246 8.18035 40.6374C9.82904 42.4274 11.0772 44.434 11.8899 46.6013L14.4624 53.4614C14.7181 54.1436 15.3796 54.602 16.1082 54.602H20.8612C21.4437 54.602 21.9159 55.0742 21.9159 55.6567C21.9159 56.2392 21.4437 56.7114 20.8612 56.7114H17.3979V58.9701H32.7612V56.7114H25.7831C25.2006 56.7114 24.7284 56.2392 24.7284 55.6567C24.7284 55.0742 25.2006 54.602 25.7831 54.602H34.051C34.7796 54.602 35.4411 54.1436 35.6969 53.4614L38.1657 46.8778C39.0495 44.5209 40.3272 42.427 41.9633 40.6544C45.8882 36.402 48.0498 30.8707 48.0498 25.0796C48.0498 12.4138 37.7455 2.10938 25.0797 2.10938C18.9891 2.10938 13.2582 4.45092 8.94254 8.70286C8.52755 9.1118 7.85973 9.10659 7.45107 8.69175C7.04227 8.27691 7.04719 7.60908 7.46218 7.20028ZM24.1523 69.8906H26.0068C28.4842 69.8906 30.5075 67.9091 30.5753 65.4477H19.5838C19.6516 67.9091 21.6749 69.8906 24.1523 69.8906ZM31.7065 63.3383C32.2881 63.3383 32.7612 62.8653 32.7612 62.2837V61.0796H17.3979V62.2837C17.3979 62.8653 17.871 63.3383 18.4526 63.3383H31.7065ZM52.532 9.3743C53.0272 9.06703 53.6771 9.21904 53.9845 9.71376C54.2918 10.2086 54.1399 10.8589 53.6451 11.1663L51.7898 12.3187C51.2926 12.6274 50.6431 12.4716 50.3373 11.9792C50.03 11.4844 50.1819 10.8341 50.6768 10.5267L52.532 9.3743ZM46.4402 7.28657C46.9539 7.56135 47.5929 7.36785 47.8677 6.85429L48.8982 4.92857C49.173 4.41501 48.9795 3.77587 48.4659 3.50109C47.9524 3.2263 47.3132 3.41966 47.0385 3.93337L46.008 5.85909C45.7332 6.37265 45.9267 7.01179 46.4402 7.28657ZM55.9093 16.4987H55.9203C56.4978 16.4987 56.9689 16.9638 56.9747 17.5427C56.9806 18.1251 56.5133 18.6021 55.9308 18.608L53.7468 18.6303H53.7358C53.1583 18.6303 52.6873 18.1651 52.6814 17.5863C52.6755 17.0038 53.1428 16.5268 53.7253 16.5209L55.9093 16.4987Z" fill="#2D2E2E"/>
<path d="M12.5085 26.6281C11.4842 27.6524 10.9201 29.0141 10.9201 30.4626C10.9201 31.9112 11.4842 33.2729 12.5085 34.2972L20.2303 42.0191C22.3445 44.1334 25.785 44.1336 27.8995 42.0191L31.0455 38.873C31.4574 38.4611 31.4574 37.7933 31.0455 37.3815C30.6336 36.9696 29.9658 36.9696 29.5541 37.3815L26.408 40.5276C25.7821 41.1534 24.95 41.498 24.0649 41.498C23.1799 41.498 22.3479 41.1534 21.7219 40.5276L14.0001 32.8057C13.3743 32.1798 13.0296 31.3477 13.0296 30.4626C13.0296 29.5777 13.3743 28.7456 14.0001 28.1197C15.2921 26.8278 17.3941 26.8278 18.686 28.1197L23.3192 32.7529C23.731 33.1647 24.3989 33.1647 24.8106 32.7529L34.077 23.4865C35.369 22.1947 37.4711 22.1947 38.763 23.4865C40.0549 24.7784 40.0549 26.8806 38.763 28.1726L33.07 33.8656C32.6581 34.2775 32.6581 34.9453 33.07 35.3571C33.4818 35.769 34.1497 35.769 34.5614 35.3571L40.2545 29.664C42.3688 27.5496 42.3688 24.1093 40.2545 21.9949C38.1402 19.8806 34.6998 19.8806 32.5854 21.9949L24.0649 30.5154L20.1775 26.6279C19.1533 25.6038 17.7915 25.0397 16.3429 25.0397C14.8943 25.0397 13.5328 25.6039 12.5085 26.6281Z" fill="#0C93F4"/>
</svg>
