<svg width="265" height="100" viewBox="0 0 265 100" fill="none" xmlns="http://www.w3.org/2000/svg">
<path d="M220.115 8.09766L191.068 35.4819L216.442 55.0699L227.332 37.1583L220.115 8.09766Z" fill="#0C93F4"/>
<path d="M222.388 7.95333L228.194 32.923L264.998 0L222.388 7.95333Z" fill="#0C93F4"/>
<path d="M217.243 57.2498L217.721 77.6784L237.38 87.6511L240.369 65.6675L228.619 39.2715L217.243 57.2498Z" fill="#0C93F4"/>
<path d="M181.334 18.4489L189.464 34.1412L205.531 19.2013L191.573 15.6914L181.334 18.4489Z" fill="#0C93F4"/>
<path d="M170.281 30.8778L184.285 27.7822L180.432 20.4004L171.917 25.6391L170.281 30.8778Z" fill="#0C93F4"/>
<mask id="mask0_533_777" style="mask-type:luminance" maskUnits="userSpaceOnUse" x="0" y="0" width="265" height="100">
<path d="M265 0H0V100H265V0Z" fill="white"/>
</mask>
<g mask="url(#mask0_533_777)">
<path d="M70.4282 87.9859H66.2865V83.6711C63.8418 86.2768 60.5608 87.9514 57.0091 88.4062C53.4574 88.861 49.8576 88.0674 46.8305 86.1624C43.8034 84.2574 41.5387 81.3603 40.4268 77.9706C39.315 74.5809 39.4257 70.9112 40.7399 67.5941C42.0542 64.277 44.4895 61.5205 47.626 59.7999C50.7625 58.0793 54.4036 57.5025 57.9215 58.1688C61.4394 58.8351 64.6135 60.7029 66.8967 63.4501C69.1798 66.1972 70.4287 69.6516 70.4282 73.2175V87.9859ZM55.0522 61.9185C52.877 61.9197 50.7479 62.5433 48.9184 63.7151C47.089 64.887 45.6363 66.5577 44.7333 68.5283C43.8303 70.499 43.5151 72.6865 43.8251 74.8305C44.1351 76.9745 45.0573 78.9846 46.482 80.6215C47.9066 82.2584 49.7736 83.4531 51.8608 84.0634C53.9479 84.6737 56.1672 84.6738 58.2544 84.0638C60.3416 83.4538 62.2088 82.2593 63.6336 80.6226C65.0585 78.9859 65.981 76.9759 66.2913 74.8319C66.2913 74.8319 66.4299 73.3127 66.406 72.7745C66.2828 69.8577 65.0339 67.1007 62.9196 65.0782C60.8053 63.0558 57.9887 61.9239 55.057 61.9185M30.3693 87.9859C29.8119 87.966 29.2694 87.8019 28.7951 87.5096C28.3208 87.2173 27.9313 86.8069 27.6648 86.319C25.6513 83.4234 14.814 68.0645 14.814 68.0645H24.2094C26.451 68.0645 28.6008 67.1777 30.1859 65.5993C31.7709 64.0209 32.6614 61.8802 32.6614 59.648C32.6614 57.4158 31.7709 55.275 30.1859 53.6966C28.6008 52.1182 26.451 51.2315 24.2094 51.2315H2.9628L0 47.0215H24.2022C27.5635 47.0215 30.7872 48.3511 33.164 50.718C35.5408 53.0848 36.876 56.2949 36.876 59.642C36.876 62.9892 35.5408 66.1993 33.164 68.5661C30.7872 70.9329 27.5635 72.2626 24.2022 72.2626H22.9564C27.672 78.93 34.1404 87.9787 34.1404 87.9787H30.3693M183.672 99.9921C179.557 100.036 175.582 98.509 172.562 95.7249L172.244 95.4392L174.502 92.1769L174.904 92.515C175.955 93.4045 177.139 94.1274 178.412 94.6581C181.243 95.9533 184.464 96.1236 187.417 95.1344C188.917 94.6406 190.24 93.7222 191.225 92.4916C192.209 91.261 192.812 89.7714 192.96 88.205C193.324 86.2172 193.116 84.1675 192.36 82.2924C191.774 80.793 190.76 79.4977 189.442 78.5665C188.124 77.6354 186.562 77.1094 184.947 77.0536C183.35 76.8841 181.734 77.0635 180.214 77.5792C178.693 78.0949 177.304 78.9346 176.142 80.0397C175.914 80.2625 175.612 80.3939 175.293 80.4088C175.065 80.4021 174.842 80.3434 174.64 80.2374C172.804 79.3039 172.694 79.0967 173.012 77.0822L173.029 76.9822C173.438 74.3486 173.82 71.7197 174.224 69.0884C174.411 67.7692 174.607 66.469 174.791 65.1403C175.119 62.9972 175.432 60.8708 175.762 58.6919L175.817 58.28H196.528L193.68 62.4495H179.404L177.697 74.1461L178.199 73.9533C179.111 73.5715 180.055 73.2695 181.02 73.0508C181.974 72.8611 182.944 72.7654 183.916 72.765C186.308 72.7105 188.669 73.3107 190.742 74.5002C192.815 75.6897 194.52 77.423 195.672 79.5111C197.292 82.4876 197.792 85.942 197.084 89.2531C196.375 92.5643 194.503 95.5151 191.805 97.5751C189.759 98.991 187.358 99.8151 184.87 99.9564C184.454 99.9802 184.06 99.9945 183.658 99.9945M207.875 87.9811H203.666V62.4567H199.06L201.887 58.3157H207.882L207.875 87.9811ZM118.187 88.5312C115.145 88.5321 112.171 87.6347 109.642 85.9525C107.112 84.2703 105.14 81.8788 103.976 79.0805C102.811 76.2822 102.506 73.2029 103.099 70.2319C103.692 67.261 105.156 64.5319 107.307 62.3899C109.458 60.2478 112.198 58.789 115.182 58.198C118.165 57.607 121.258 57.9104 124.068 59.0697C126.878 60.2289 129.28 62.1921 130.97 64.7108C132.659 67.2296 133.561 70.1908 133.561 73.2198V73.8009H106.862C106.995 76.3672 108.002 78.8117 109.718 80.7312C111.434 82.6508 113.755 83.9308 116.299 84.3602C118.844 84.7896 121.459 84.3427 123.714 83.0932C125.969 81.8438 127.729 79.8663 128.704 77.487L128.823 77.1894H133.066L132.867 77.8061C131.895 80.9202 129.945 83.6417 127.304 85.5704C124.664 87.4992 121.471 88.5337 118.197 88.5217M107.417 69.6789H128.974C128.226 67.42 126.782 65.4535 124.847 64.0595C122.911 62.6655 120.584 61.9151 118.195 61.9151C115.807 61.9151 113.479 62.6655 111.544 64.0595C109.609 65.4535 108.164 67.42 107.417 69.6789ZM165.185 87.993H160.934V82.3995C160.934 78.4609 160.934 74.3843 160.912 70.379C160.915 69.219 160.773 68.0631 160.489 66.9381C160.193 65.6649 159.503 64.5164 158.516 63.6549C157.529 62.7935 156.295 62.2627 154.989 62.1376C153.361 61.8186 151.677 61.9392 150.112 62.4869C148.547 63.0346 147.158 63.9894 146.089 65.2522C144.266 67.3485 143.32 70.0615 143.446 72.8317C143.446 75.9916 143.446 87.9716 143.446 87.9716H139.209V58.2871H143.123L143.362 62.7996C144.496 61.2008 146.005 59.9027 147.758 59.0186C149.511 58.1344 151.455 57.6912 153.42 57.7275C156.156 57.6903 158.82 58.5917 160.967 60.2802C163.145 62.0705 164.56 64.6165 164.927 67.4049C165.101 68.5961 165.181 69.7992 165.166 71.0029C165.182 74.8367 165.182 78.6713 165.166 82.5067L165.185 87.993ZM87.282 81.978C87.282 81.978 94.4343 65.3094 96.9547 59.3396C97.0709 59.0001 97.3004 58.7105 97.605 58.519C97.9096 58.3274 98.2708 58.2456 98.6286 58.2871H102.043C102.043 58.2871 91.6915 82.0518 89.4676 87.1882C89.3989 87.4352 89.25 87.6526 89.044 87.8064C88.8381 87.9603 88.5868 88.0418 88.3294 88.0383H88.1978C87.5606 88.0047 86.922 88.0047 86.2848 88.0383H86.2083C85.9768 88.0515 85.7474 87.9889 85.5552 87.8598C85.363 87.7308 85.2186 87.5425 85.1442 87.3239C81.2248 78.3038 72.6019 58.3085 72.6019 58.3085H75.9497C76.3075 58.267 76.6687 58.3489 76.9733 58.5404C77.2779 58.7319 77.5074 59.0215 77.6236 59.361C80.144 65.3141 87.2963 81.9995 87.2963 81.9995" fill="#0C93F4"/>
</g>
</svg>
