<svg width="230" height="60" viewBox="0 0 230 60" fill="none" xmlns="http://www.w3.org/2000/svg">
<path fill-rule="evenodd" clip-rule="evenodd" d="M51.2259 9.65148C49.4587 5.19905 48.0128 1.50399 48.0128 1.43514C48.0128 1.36629 50.1931 1.34334 52.8554 1.36629L57.6979 1.43514C59.1747 5.24326 67.7503 27.1169 67.7503 27.1169C67.7503 27.1169 69.0585 24.3399 76.3109 6.41544L78.3765 1.32039H81.7273H85.0781L90.4715 14.2875C93.4321 21.4022 95.8878 27.1858 95.9567 27.1169C96.0256 27.0481 98.2059 21.2416 100.822 14.2187L105.573 1.43514L109.727 1.36629C111.999 1.34334 113.881 1.38924 113.881 1.48104C113.881 1.5499 110.875 9.23837 107.18 18.5104C104.32 25.7482 101.427 32.9726 98.596 40.2218L95.3829 40.2906L92.1469 40.3595L86.6617 26.9333C83.6551 19.5432 81.1076 13.576 81.0388 13.6678C80.9699 13.7596 78.4224 19.7957 75.4159 27.094L69.9306 40.3365L66.6258 40.2906L63.3438 40.2218L58.8684 28.9759C58.4985 28.0424 58.1061 27.0527 57.7006 26.0296C55.414 20.2613 52.7073 13.4332 51.2259 9.65148ZM7.22946 28.0578C18.2228 9.21534 22.3769 2.12358 22.6293 1.71047C22.8589 1.36621 23.3408 1.32031 27.4719 1.32031L32.0621 1.34326L37.7079 11.0284C39.2571 13.6907 41.3054 17.2022 43.3538 20.7136C45.4021 24.2251 47.4505 27.7365 48.9997 30.3988C52.1209 35.7233 54.6685 40.1299 54.6685 40.1987C54.6685 40.2676 46.521 40.3364 36.5374 40.3364H18.4064V36.6643V32.9922H29.6293H40.8522L34.1735 21.0579C30.4785 14.5169 27.426 9.14649 27.3572 9.14649C27.2883 9.14649 23.272 16.1694 18.4064 24.73L9.57042 40.3364H4.79669H0L0.459013 39.5791C0.71147 39.1889 3.76391 33.9791 7.22946 28.0578ZM121.73 1.66457C118.425 2.5826 117.232 4.258 116.819 8.64158C116.543 11.6022 116.75 17.5005 117.186 19.1989C117.645 20.8513 118.494 22.0677 119.711 22.7792C121.753 23.9726 122.671 24.0415 137.819 24.0415H151.75V28.5168V32.9922H137.52H123.291V30.6972C123.291 29.4349 123.245 28.4021 123.199 28.4021C123.146 28.4021 122.086 28.6172 120.623 28.9136C120.175 29.0045 119.689 29.103 119.183 29.2054C117.048 29.6414 115.212 30.0086 115.12 30.0086C114.868 30.0086 115.235 34.4611 115.602 35.7004C116.36 38.202 118.15 39.625 121.156 40.1069C121.914 40.2446 129.143 40.3364 137.75 40.3364C153.586 40.3364 154.963 40.2676 156.73 39.3496C157.763 38.7987 158.658 37.7889 159.3 36.4348L159.897 35.1725V28.6316C159.897 22.8251 159.851 21.953 159.461 20.8513C158.635 18.4874 156.891 17.2022 153.792 16.7202C152.897 16.5596 147.022 16.4678 138.599 16.4678H124.897L124.943 12.2678L125.012 8.09076H138.094H151.176L151.245 10.3399C151.291 11.9924 151.383 12.5891 151.589 12.4973C151.75 12.4514 153.586 12.0153 155.72 11.5334L159.553 10.6612V9.4678C159.553 5.52029 158.222 3.08751 155.422 1.93998C153.792 1.27212 138.553 1.38917 138.553 1.38917C138.553 1.38917 122.74 1.38917 121.73 1.66457ZM32.3145 52.5233C31.4653 50.8938 32.1539 48.9201 33.8522 48.1168C35.1374 47.5201 38.3735 47.5889 39.3604 48.2545C40.0718 48.7135 40.6685 49.7004 40.6685 50.4348C40.6685 50.802 40.5308 50.8938 39.9341 50.8938C39.3374 50.8938 39.0849 50.7561 38.7866 50.2053C38.3276 49.402 37.5702 49.0578 36.285 49.0578C34.4719 49.0578 33.2555 50.2283 33.8293 51.4446C34.1047 52.1102 34.6784 52.3627 36.8817 52.8446C39.98 53.5561 41.1276 54.4741 41.1276 56.2184C41.1046 58.5364 39.3374 59.9364 36.4227 59.9364C33.944 59.9364 32.4981 59.0413 31.9702 57.1364L31.7407 56.402H32.6129C33.3702 56.402 33.485 56.4938 33.7374 57.1823C34.1735 58.3528 35.8948 58.9265 37.5932 58.4675C38.6259 58.1692 39.0849 57.7102 39.4063 56.6774C39.6817 55.7594 38.5571 54.9331 36.4227 54.4741C33.8981 53.9004 32.7506 53.3725 32.3145 52.5233ZM46.2915 48.1168C43.9046 49.2184 42.7341 52.2479 43.3997 55.5298C44.0882 58.7888 46.7734 60.556 49.9636 59.8445C51.6849 59.4773 52.6947 58.697 53.4062 57.2052C55.0816 53.7856 53.9799 49.402 51.1111 48.1168C49.8718 47.543 47.5079 47.543 46.2915 48.1168ZM50.5373 49.4938C51.7767 50.1364 52.4422 51.6741 52.4422 53.7397C52.4422 56.0806 51.7767 57.4577 50.2619 58.1921C49.4128 58.6052 48.9767 58.697 48.2882 58.5823C46.039 58.2151 44.9833 56.6544 44.9833 53.7167C44.9833 50.7331 46.3144 49.0577 48.7013 49.0577C49.2751 49.0577 50.1013 49.2413 50.5373 49.4938ZM183.054 54.7725C182.687 51.6053 184.248 48.7135 186.772 47.9102C187.874 47.543 191.018 47.7725 191.822 48.2315C192.625 48.7135 193.29 49.7004 193.29 50.4118C193.29 51.1004 191.776 51.1233 191.569 50.4118C191.317 49.6545 190.1 49.0578 188.815 49.0578C186.29 49.0578 184.799 50.7791 184.799 53.6708C184.799 55.5298 185.12 56.5167 186.015 57.4806C186.887 58.4216 188.494 58.8118 190.307 58.5364L191.569 58.3528L191.638 56.5856L191.707 54.8184L190.376 54.7495L190.369 54.7492C189.067 54.6807 189.045 54.6795 189.045 53.9921V53.3036H191.225H193.405L193.474 56.3102L193.543 59.3396L192.349 59.6151C190.743 60.0052 187.622 60.0282 186.566 59.638C184.615 58.9495 183.353 57.2052 183.054 54.7725ZM0.0458901 59.7298H1.90489V54.8643L4.0393 54.7495C7.32125 54.5659 8.62944 53.579 8.62944 51.261C8.62944 48.6905 7.3442 47.9332 2.96062 47.9102H0.0458901V59.7298ZM6.35732 49.861C7.16059 50.6413 7.13764 51.9954 6.35732 52.7298C5.87536 53.1889 5.4852 53.2807 3.83275 53.3725L1.88194 53.4872V51.3758V49.2872H3.83275C5.6229 49.2872 5.85241 49.3331 6.35732 49.861ZM10.6032 59.8446V53.8774V47.9103H18.1999L18.1769 49.3102H12.4393V52.9594H17.9474V54.3364H12.4393V58.4676H18.1769V59.8446H10.6032ZM20.7474 53.8085L20.8162 59.8446H21.6884H22.5375V57.1134V54.3364H24.0293C24.8555 54.3364 25.8883 54.4741 26.3244 54.6577C27.1506 55.0019 27.3572 55.4609 27.7014 57.779C27.9998 59.5921 28.1604 59.8445 29.1014 59.8445C29.8588 59.8445 29.9276 59.7986 29.7899 59.3166C29.7211 59.0412 29.4916 57.9396 29.285 56.8609C28.849 54.5888 28.6883 54.1987 28.0227 53.9921C27.5637 53.8314 27.5637 53.8085 28.1834 53.3954C30.1801 52.1101 30.0653 49.3102 27.9998 48.3692C27.1736 48.002 26.485 47.9102 23.8457 47.9102H20.7015L20.7474 53.8085ZM27.3342 49.838C27.7244 50.1823 27.8162 50.5036 27.7703 51.1921C27.6785 52.5462 26.99 52.9364 24.5342 53.12L22.5375 53.2577V51.261V49.2413L24.6949 49.3331C26.4391 49.379 26.9441 49.4938 27.3342 49.838ZM56.9635 59.8446V53.8773V47.9102H58.0652H59.1438L62.0815 52.7757L64.9963 57.6642V52.7757V47.9102H65.7995H66.6028V53.9003V59.8446H65.5241H64.4454L61.5537 54.9331L58.6848 50.1134L58.616 54.979L58.5701 59.8446H57.7668H56.9635ZM73.5109 48.4152C73.3962 48.7135 72.3175 51.307 71.1011 54.1758C69.8847 57.0676 68.8979 59.5233 68.8979 59.638C68.8979 59.7528 69.288 59.8446 69.77 59.8446C70.6102 59.8446 70.6191 59.8221 71.1972 58.3543L71.2159 58.3069L71.8126 56.7463L74.6814 56.6774L77.5503 56.6086L78.1929 58.2381L78.8355 59.8446H79.7535C80.5109 59.8446 80.6256 59.7758 80.5109 59.4315C80.4191 59.2249 79.2945 56.5397 78.0322 53.4643L75.6913 47.9103H74.7044C73.8782 47.9103 73.6716 48.0021 73.5109 48.4152ZM76.8388 54.8414C76.9535 55.2315 76.7929 55.2545 74.7732 55.2545C73.5568 55.2545 72.57 55.1856 72.57 55.0938C72.57 55.002 73.0519 53.7168 73.6486 52.202L74.7044 49.4709L75.6913 51.9496C76.1112 52.982 76.5045 53.9878 76.7084 54.5091L76.7087 54.5101L76.7453 54.6035L76.781 54.6947C76.807 54.7611 76.8266 54.8108 76.8388 54.8414ZM82.8978 59.8446V53.8774V47.9103H83.701H84.5043V53.1889V58.4676H87.3731H90.242V59.1561V59.8446H86.5699H82.8978ZM92.3075 53.8774V59.8446H93.1108H93.9141L93.96 54.6348L94.0288 49.425L95.6124 53.6479L95.688 53.8494L95.823 54.2097L95.9689 54.5993C97.5732 58.8825 97.8694 59.6731 98.3552 59.8153C98.7115 59.9195 99.2692 59.8446 99.6058 59.8446L101.258 55.3004C102.176 52.8217 103.071 50.4578 103.232 50.0906C103.462 49.5168 103.507 50.1824 103.53 54.6118L103.553 59.8446H104.357H105.16V53.8774V47.9103H103.806H102.452L100.662 52.7299C99.6747 55.3692 98.8026 57.4577 98.7108 57.3659C98.619 57.2741 97.7698 55.1168 96.7829 52.5463L94.9927 47.9103H93.6616H92.3075V53.8774ZM109.658 54.1528C110.875 51.284 111.953 48.7135 112.068 48.4152C112.229 48.0021 112.435 47.9103 113.261 47.9103H114.248L116.612 53.5561C117.898 56.6774 119.022 59.3626 119.091 59.5233C119.183 59.7758 118.976 59.8446 118.288 59.8446H117.37L116.727 58.2381L116.107 56.6086L113.261 56.6774L110.416 56.7463L109.796 58.2381C109.199 59.661 109.13 59.7298 108.304 59.7987C107.822 59.8446 107.455 59.7757 107.455 59.638C107.455 59.5003 108.442 57.0446 109.658 54.1528ZM115.488 55.1397C115.488 55.0709 115.006 53.8315 114.432 52.3856C113.858 50.9398 113.33 49.7463 113.284 49.7463C113.17 49.7463 113.009 50.1135 111.93 52.8217C111.494 53.9463 111.127 54.9332 111.127 55.0479C111.127 55.1627 112.114 55.2545 113.307 55.2545C114.501 55.2545 115.488 55.2086 115.488 55.1397ZM121.455 53.8774V59.8446H122.258H123.061V57.0676V54.2676L125.035 54.4053C127.445 54.543 127.766 54.7955 128.134 56.7463C128.638 59.6839 128.73 59.8446 129.602 59.8446C130.038 59.8446 130.406 59.7758 130.406 59.661C130.406 59.5692 130.199 58.4217 129.947 57.1135C129.488 54.7496 129.075 53.8774 128.363 53.8774C128.156 53.8774 128.294 53.6938 128.707 53.4414C129.763 52.7987 130.176 52.0873 130.176 50.8709C130.176 49.6316 129.671 48.8512 128.478 48.2775C127.881 48.0021 126.986 47.9103 124.576 47.9103H121.455V53.8774ZM128.019 50.0447C129.556 51.8348 127.881 53.1889 124.186 53.1889H123.061V51.2152V49.2414L125.265 49.3332C127.353 49.4021 127.491 49.448 128.019 50.0447ZM133.045 59.7299L132.976 53.8086L132.93 47.9103H133.848H134.766V50.366V52.8447L137.245 50.366C139.632 47.9791 139.747 47.9103 140.733 47.9103H141.766L139.15 50.5266L136.533 53.166L138.897 55.8512C139.559 56.5936 140.22 57.3478 140.754 57.9566C141.276 58.5523 141.676 59.0088 141.835 59.179L142.386 59.8446H141.261H140.137L137.497 56.7463L134.881 53.625L134.766 56.6774L134.651 59.7299H133.848H133.045ZM144.635 53.8774V59.8446H148.422H152.209V59.1561V58.4905L149.294 58.4217L146.356 58.3528L146.287 56.3332L146.219 54.3364H148.996H151.75V53.6479V52.9594H148.996H146.242V51.1234V49.2873H149.11H151.979V48.5988V47.9103H148.307H144.635V53.8774ZM153.815 49.2873V48.5988V47.9103H158.75H163.684V48.5988V49.2873H161.619H159.553V54.566V59.8446H158.75H157.946V54.566V49.2873H155.881H153.815ZM165.979 53.8774V59.8446H166.782H167.586V53.8774V47.9103H166.782H165.979V53.8774ZM170.569 59.8446V53.8774V47.9103H171.694H172.841L175.779 52.7758L178.717 57.6643L178.786 52.7758L178.832 47.9103H179.635H180.438V53.8774V59.8446H179.313H178.212L175.389 55.1397C173.828 52.5463 172.474 50.366 172.382 50.2971C172.268 50.2283 172.176 52.3627 172.176 55.002V59.8446H171.373H170.569Z" fill="#0C93F4"/>
<path fill-rule="evenodd" clip-rule="evenodd" d="M226.235 0.050859C226.007 -0.0635738 224.864 0.050859 224.636 0.050859C224.407 0.050859 224.142 0.454809 223.95 0.737456C217.468 1.61186 210.993 2.22228 204.527 2.56849C196.424 2.8629 188.426 2.29841 180.38 1.73055C178.91 1.62676 177.438 1.52285 175.963 1.42405C173.502 0.863854 170.988 0.520555 168.422 0.394157C168.014 0.573705 167.671 0.840715 167.394 1.19519C167.057 6.90948 166.943 12.6369 167.051 18.3601C166.975 24.9601 167.051 31.521 167.279 38.0425C167.527 39.1317 168.136 39.971 169.108 40.5601C170.39 40.6578 171.609 40.5052 172.763 40.1025L172.764 40.1024C180.854 39.7295 188.894 39.2475 196.986 38.9579H200.871C200.771 44.8702 200.237 50.7445 199.271 56.5806C199.268 58.4459 200.182 59.1704 202.013 58.7548L210.125 47.8837C212.515 44.9554 214.991 42.0945 217.552 39.3012C220.729 39.0039 223.929 38.8513 227.149 38.8435C230.081 37.2916 229.434 34.4295 229.434 31.6344C228.971 28.4392 228.59 25.235 228.292 22.022C227.84 15.0882 227.573 8.14588 227.492 1.19519C227.097 0.759905 226.464 0.165292 226.235 0.050859ZM199.271 34.8384C200.72 34.8004 202.167 34.8384 203.613 34.9528C204.184 35.2199 204.603 35.6394 204.869 36.2116C204.889 40.4296 204.737 44.6256 204.412 48.7992C207.696 44.3642 211.238 40.1302 215.038 36.0971C215.273 35.9797 215.501 35.8653 215.724 35.7538C216.271 35.3789 216.88 35.1121 217.552 34.9528C220.219 34.8638 222.885 34.902 225.55 35.0672L225.55 34.8384C225.58 32.9436 225.351 31.1127 224.864 29.3457C224.256 21.2695 223.799 13.1829 223.493 5.08601C219.135 5.31538 214.807 5.77279 210.468 6.23024C200.944 6.87241 191.422 6.83426 181.904 6.11581C177.602 5.54285 175.487 5.1891 171.164 4.62817C171.164 4.62817 170.936 4.51374 170.936 4.62817C170.936 15.231 171.27 25.8383 171.393 36.4405C180.658 35.4157 189.973 35.356 199.271 34.8384ZM199.042 25.4548H198.357C191.622 25.6869 184.919 25.3436 178.248 24.425C176.972 23.9258 176.439 22.9723 176.648 21.5641C177.407 20.6131 178.397 20.2316 179.619 20.4198C184.136 20.8909 188.668 21.1198 193.215 21.1065C200.886 20.9504 208.52 20.4883 216.181 20.3055C217.416 20.7587 217.835 21.636 217.437 22.9374C217.221 23.4112 216.878 23.7545 216.409 23.9673C210.752 24.7611 204.761 25.0799 199.042 25.4548ZM177.562 17.5591C189.072 17.8097 200.236 17.8849 211.725 18.589C212.912 18.5361 216.565 19.0368 217.095 17.9024C217.278 17.4201 217.43 16.9242 217.552 16.4147C217.155 14.7574 216.907 14.4001 215.267 14.1262C202.668 13.4696 190.101 13.2027 177.566 13.3251L177.562 13.3251C177.136 13.6134 176.831 13.9948 176.648 14.4694C176.427 14.9517 176.351 15.4858 176.42 16.0715C176.317 16.9237 176.698 17.4196 177.562 17.5591ZM209.325 30.2611C198.84 30.5938 187.571 31.7918 177.105 29.9178C175.896 29.0085 175.667 27.9024 176.42 26.5993C177.322 26.2427 178.274 26.0903 179.276 26.1415C190.67 26.803 202.057 26.7265 213.439 25.9127C214.976 25.6641 216.499 25.6641 218.009 25.9127C218.161 25.9889 218.313 26.0653 218.466 26.1415C219.118 27.2142 219.042 28.2441 218.237 29.2312C216.5 29.558 214.748 29.8251 212.982 30.0323C211.756 30.0258 210.538 30.1023 209.326 30.2611L209.325 30.2611Z" fill="#0C93F4"/>
</svg>
