<svg width="238" height="60" viewBox="0 0 238 60" fill="none" xmlns="http://www.w3.org/2000/svg">
<path d="M65.4519 0.776834C65.9299 1.2659 66.1941 1.92477 66.1865 2.6086C66.1865 3.29273 65.9147 3.94884 65.431 4.43259C64.9472 4.91634 64.2911 5.18811 63.607 5.18811C62.9229 5.18811 62.2668 4.91634 61.783 4.43259C61.2993 3.94884 61.0275 3.29273 61.0275 2.6086C61.0217 2.09343 61.1703 1.58831 61.4541 1.15835C61.738 0.728384 62.1441 0.39327 62.6201 0.196188C63.0961 -0.000893981 63.6203 -0.0509133 64.125 0.0525752C64.6297 0.156064 65.0918 0.408318 65.4519 0.776834ZM65.2074 1.02131C64.9994 0.81344 64.7519 0.649276 64.4796 0.538477C64.2072 0.427677 63.9154 0.37248 63.6213 0.376134C63.3291 0.371311 63.0389 0.426024 62.7685 0.536942C62.498 0.647859 62.253 0.81266 62.0483 1.02131C61.8393 1.22845 61.6744 1.47577 61.5635 1.74836C61.4526 2.02096 61.3981 2.31317 61.4032 2.60741C61.3991 2.89956 61.4542 3.1895 61.565 3.45982C61.6759 3.73014 61.8403 3.97524 62.0483 4.1804C62.253 4.38904 62.498 4.55384 62.7685 4.66476C63.0389 4.77568 63.3291 4.83039 63.6213 4.82557C63.9154 4.82922 64.2072 4.77403 64.4796 4.66323C64.7519 4.55243 64.9994 4.38826 65.2074 4.1804C65.4155 3.97524 65.5799 3.73014 65.6907 3.45982C65.8016 3.1895 65.8567 2.89956 65.8526 2.60741C65.8577 2.31317 65.8031 2.02096 65.6923 1.74836C65.5814 1.47577 65.4165 1.22845 65.2074 1.02131ZM62.7186 3.96216V1.24074H63.7251C63.829 1.23863 63.9323 1.25755 64.0288 1.29635C64.1252 1.33516 64.2128 1.39306 64.2863 1.46657C64.3598 1.54008 64.4177 1.6277 64.4566 1.72414C64.4954 1.82059 64.5143 1.92389 64.5122 2.02783C64.5141 2.1333 64.4945 2.23806 64.4545 2.33568C64.4145 2.4333 64.355 2.52171 64.2796 2.59549C64.2082 2.66162 64.1254 2.71416 64.0351 2.75052L64.5122 3.96335H64.022L63.57 2.81492H63.1181V3.96216H62.7186ZM64.1055 2.02783C64.1077 1.97659 64.098 1.92553 64.0774 1.8786C64.0567 1.83167 64.0255 1.79011 63.9862 1.75712C63.9516 1.7199 63.9097 1.69013 63.8632 1.66962C63.8166 1.64912 63.7664 1.63831 63.7155 1.63786H63.1097V2.41183H63.7155C63.817 2.40855 63.9134 2.36679 63.9851 2.29503C64.0569 2.22326 64.0986 2.12688 64.1019 2.02544" fill="#0C93F4"/>
<path d="M29.9473 3.87305V21.5289L45.4756 12.8101L29.9473 3.87305Z" fill="#0C93F4"/>
<path d="M29.9473 38.9648V56.6266L45.4756 47.9078L29.9473 38.9648Z" fill="#0C93F4"/>
<path d="M30.025 21.4141V39.0699L14.5098 30.3642L30.025 21.4141Z" fill="#0C93F4"/>
<path d="M1.37979 1.40909H58.5916V58.6209H1.37979V1.40909ZM0 60.0007H59.9714V0.0292969H0V60.0007Z" fill="#0C93F4"/>
<path d="M224.591 24.2237C224.187 24.4083 223.745 24.4922 223.302 24.4682H223.018V25.1265H229.053V24.5302H228.679C227.479 24.5302 226.89 24.1044 226.89 23.241V18.5495H230.424C230.907 18.5932 231.381 18.7106 231.83 18.8977C232.141 19.0133 232.406 19.2296 232.581 19.5123C232.756 19.795 232.832 20.1281 232.797 20.4588V23.631C232.791 24.1542 232.964 24.6637 233.287 25.0752C233.45 25.2859 233.662 25.4536 233.905 25.5637C234.148 25.6738 234.414 25.7231 234.68 25.7072C235.048 25.7566 235.422 25.699 235.759 25.5413C236.095 25.3835 236.379 25.1323 236.576 24.8176C236.903 24.1341 237.063 23.3821 237.04 22.6245V21.8374H236.215V22.7533C236.215 23.8111 235.879 24.3262 235.221 24.3262C235.092 24.3283 234.964 24.3018 234.847 24.2487C234.727 24.2487 234.679 23.9911 234.679 23.6298V20.5864C234.709 20.2581 234.658 19.9273 234.53 19.6235C234.402 19.3197 234.201 19.0524 233.944 18.8452C233.392 18.4595 232.783 18.1637 232.138 17.9687C232.946 17.868 233.702 17.5212 234.305 16.9753C234.605 16.7099 234.843 16.3816 235.001 16.0139C235.159 15.6461 235.234 15.248 235.221 14.8478C235.316 14.1938 235.168 13.5277 234.804 12.9761C234.44 12.4244 233.886 12.0257 233.247 11.8557C231.988 11.5004 230.687 11.3182 229.379 11.3142H223.008V11.9725H223.292C223.739 11.9537 224.183 12.0515 224.581 12.2564C224.738 12.4157 224.856 12.6092 224.925 12.8217C224.994 13.0343 225.013 13.26 224.981 13.4811V22.9739C224.981 23.6572 224.852 24.0698 224.581 24.263M229.805 12.3971C230.607 12.3945 231.401 12.5569 232.138 12.8741C232.505 13.0558 232.807 13.347 233.001 13.7074C233.195 14.0679 233.272 14.4797 233.221 14.886C233.221 16.2017 232.757 16.9884 231.828 17.246C230.9 17.5034 229.941 17.6334 228.978 17.6324H226.811V12.3589L229.805 12.3971ZM211.4 24.263C210.997 24.449 210.554 24.5329 210.111 24.5075H209.827V25.1658H221.228V21.1409H220.518C220.473 21.8579 220.33 22.5653 220.092 23.2434C219.86 23.8397 219.241 24.1199 218.222 24.1199H213.691V18.5495H215.316C216.09 18.5495 216.605 18.7296 216.735 19.0778C216.936 19.5831 217.045 20.1202 217.057 20.6639H217.754V15.3761H217.057C217.026 15.931 216.899 16.4763 216.683 16.9884C216.515 17.3629 216.038 17.543 215.264 17.543H213.641V12.3458H217.059C218.219 12.3458 218.955 12.5521 219.252 12.9647C219.617 13.6205 219.804 14.3607 219.793 15.1113H220.463V11.3142H209.772V11.9845H210.056C210.504 11.9567 210.95 12.055 211.345 12.2683C211.616 12.4484 211.744 12.8646 211.744 13.4811V22.9739C211.744 23.6572 211.616 24.0698 211.345 24.263M194.823 24.1855C194.438 24.4252 193.987 24.5378 193.534 24.5075H193.25V25.1658H198.409V24.5337H198.112C196.952 24.5337 196.371 24.108 196.371 23.2446V14.3064L205.27 25.1276H206.199V13.5157C206.199 12.8968 206.354 12.4841 206.663 12.3029C207.057 12.0883 207.504 11.9898 207.952 12.019H208.327V11.3142H203.168V11.9845H203.542C203.986 11.9691 204.427 12.0573 204.831 12.2421C205.001 12.3679 205.134 12.5374 205.216 12.7327C205.298 12.9279 205.325 13.1416 205.295 13.3511V22.095H205.176L196.393 11.313H193.236V11.9833H193.52C193.964 11.9651 194.406 12.0534 194.809 12.2409C194.979 12.3667 195.112 12.5362 195.194 12.7315C195.275 12.9267 195.303 13.1404 195.273 13.3499V22.9727C195.299 23.188 195.274 23.4064 195.2 23.6103C195.126 23.8142 195.005 23.9978 194.847 24.1462M185.174 11.9821H185.549C185.968 11.9681 186.384 12.0565 186.762 12.2397C187.072 12.4197 187.214 12.7811 187.214 13.3487V23.241C187.214 24.0663 186.659 24.5302 185.544 24.5302H185.169V25.1885H191.132V24.5302H190.746C189.65 24.5302 189.095 24.1044 189.095 23.241V13.3511C189.095 12.7835 189.237 12.4221 189.547 12.2421C189.919 12.0553 190.332 11.9666 190.747 11.9845H191.133V11.3142H185.171L185.174 11.9821ZM173.567 24.2213C173.164 24.4083 172.721 24.4923 172.278 24.4658H171.981V25.1241H183.382V21.1409H182.685C182.63 21.8577 182.483 22.5643 182.247 23.2434C182.027 23.8397 181.412 24.1199 180.39 24.1199H175.85V18.5495H177.475C178.249 18.5495 178.764 18.7296 178.906 19.0778C179.113 19.583 179.234 20.119 179.264 20.6639H179.974V15.3761H179.264C179.231 15.9291 179.11 16.4732 178.906 16.9884C178.726 17.3629 178.248 17.543 177.475 17.543H175.85V12.3458H179.268C180.428 12.3458 181.164 12.5521 181.461 12.9647C181.832 13.6181 182.019 14.36 182.002 15.1113H182.685V11.3142H171.981V11.9845H172.278C172.726 11.9559 173.173 12.0543 173.567 12.2683C173.838 12.4484 173.967 12.8646 173.967 13.4811V22.9739C173.967 23.6572 173.838 24.0698 173.567 24.263M159.265 15.2354C159.265 13.9462 159.484 13.1722 159.91 12.8503C160.431 12.5001 161.051 12.3281 161.677 12.3601H163.347V23.2458C163.347 24.071 162.792 24.5349 161.677 24.5349H161.303V25.1932H167.338V24.5349H166.926C165.843 24.5349 165.3 24.1092 165.3 23.2458V12.3458H167.055C167.697 12.3146 168.333 12.486 168.873 12.8359C169.325 13.1579 169.543 13.9581 169.543 15.2211H170.22V11.3524H158.431V15.2211L159.265 15.2354ZM146.755 25.1527V25.0334C146.755 24.6757 146.874 24.5051 147.113 24.5051C147.743 24.5724 148.351 24.7793 148.892 25.1109C149.713 25.5313 150.627 25.7395 151.549 25.7168C152.793 25.7076 154.004 25.3158 155.018 24.5946C155.549 24.2476 155.981 23.7681 156.27 23.2035C156.56 22.6389 156.697 22.0085 156.669 21.3747C156.73 20.8428 156.642 20.3043 156.414 19.8197C156.187 19.3351 155.828 18.9237 155.379 18.6318C154.473 18.107 153.496 17.7162 152.478 17.4714C151.42 17.2007 150.451 16.9169 149.563 16.6068C149.166 16.4822 148.822 16.2267 148.589 15.882C148.355 15.5372 148.245 15.1235 148.276 14.7083C148.256 14.3313 148.346 13.9564 148.537 13.6307C148.728 13.3049 149.011 13.0426 149.35 12.8765C150.009 12.516 150.745 12.3212 151.496 12.3088C152.467 12.2827 153.426 12.5236 154.269 13.0053C154.679 13.2718 155.013 13.6399 155.239 14.0737C155.465 14.5074 155.575 14.9923 155.558 15.481H156.255V11.6362H155.551C155.536 11.7452 155.492 11.848 155.422 11.9332C155.36 12.0066 155.28 12.0629 155.189 12.0967C155.099 12.1305 155.001 12.1407 154.906 12.1264C154.431 12.0726 153.969 11.9375 153.539 11.7269C152.767 11.4265 151.943 11.2861 151.115 11.3142C149.989 11.3193 148.889 11.6457 147.943 12.2552C147.457 12.5452 147.06 12.9633 146.796 13.4637C146.532 13.9641 146.411 14.5276 146.446 15.0923C146.4 15.5995 146.496 16.1095 146.724 16.5651C146.952 17.0207 147.302 17.4039 147.735 17.6718C148.65 18.1772 149.625 18.567 150.637 18.8321C151.625 19.0918 152.598 19.4059 153.551 19.7731C153.951 19.9177 154.293 20.1885 154.526 20.5445C154.758 20.9005 154.869 21.3225 154.84 21.7467C154.865 22.1642 154.769 22.5799 154.563 22.9439C154.357 23.3078 154.051 23.6045 153.68 23.7979C152.97 24.209 152.166 24.4311 151.346 24.4431C150.327 24.4386 149.329 24.1579 148.457 23.631C148.009 23.3815 147.625 23.0315 147.335 22.6085C147.045 22.1856 146.858 21.7012 146.787 21.1934H146.129V25.0621L146.755 25.1527ZM142.036 11.6362V11.765C142.019 11.8758 141.978 11.9816 141.917 12.0751C141.88 12.1504 141.82 12.2121 141.746 12.2514C141.672 12.2908 141.587 12.3059 141.504 12.2945C141.27 12.2957 141.039 12.2378 140.834 12.1264C140.537 11.9862 140.231 11.8667 139.918 11.7686L138.629 11.4979C138.087 11.3744 137.533 11.314 136.978 11.3178C135.989 11.2715 135 11.4209 134.068 11.7573C133.136 12.0937 132.28 12.6106 131.548 13.2784C130.868 13.9491 130.336 14.7544 129.985 15.6427C129.634 16.5311 129.472 17.483 129.51 18.4374C129.487 19.3912 129.657 20.3398 130.009 21.2263C130.362 22.1129 130.89 22.919 131.562 23.5964C132.192 24.2781 132.959 24.8198 133.812 25.1863C134.665 25.5528 135.586 25.7359 136.514 25.7239C137.411 25.7248 138.295 25.5126 139.094 25.105C139.881 24.7327 140.615 24.2553 141.274 23.6858L141.764 25.1563H142.744V21.1159C142.744 20.5101 142.886 20.1487 143.17 20.0426C143.502 19.9309 143.851 19.8784 144.202 19.8875H144.73V19.24H139.081V19.8852H139.365C139.773 19.8606 140.182 19.9407 140.551 20.1177C140.822 20.2727 140.951 20.6854 140.951 21.4069C140.971 21.8676 140.86 22.3246 140.632 22.7254C140.404 23.1262 140.068 23.4546 139.661 23.6727C138.796 24.1601 137.818 24.4133 136.824 24.4073C136.079 24.4509 135.335 24.3074 134.659 23.9897C133.983 23.6721 133.398 23.1905 132.956 22.5887C132.097 21.4094 131.645 19.9831 131.667 18.5244C131.634 16.9168 132.163 15.3481 133.162 14.0881C133.651 13.4608 134.283 12.9601 135.006 12.628C135.728 12.296 136.52 12.1423 137.314 12.18C138.318 12.1825 139.309 12.4073 140.216 12.8383C140.701 13.1167 141.117 13.5017 141.432 13.9642C141.747 14.4268 141.953 14.9548 142.035 15.5085H142.731V11.6362H142.036ZM121.956 11.9845H122.33C122.745 11.9695 123.157 12.058 123.53 12.2421C123.7 12.3679 123.833 12.5374 123.914 12.7327C123.996 12.9279 124.023 13.1416 123.994 13.3511V23.2434C123.994 24.0687 123.439 24.5326 122.324 24.5326H121.95V25.1908H127.912V24.5326H127.526C126.417 24.5326 125.856 24.1068 125.856 23.2434V13.3511C125.827 13.1428 125.854 12.9305 125.933 12.7357C126.012 12.541 126.142 12.3706 126.308 12.2421C126.686 12.0589 127.102 11.9704 127.521 11.9845H127.908V11.3142H121.945L121.956 11.9845ZM106.62 24.1462C106.234 24.3827 105.784 24.4951 105.331 24.4682H105.034V25.1265H110.193V24.5302H109.91C108.749 24.5302 108.168 24.1044 108.168 23.241V14.3064L117.067 25.1276H117.986V13.5157C117.986 12.8968 118.141 12.4841 118.463 12.3029C118.855 12.0841 119.303 11.9854 119.752 12.019H120.126V11.3142H114.965V11.9845H115.339C115.783 11.9668 116.225 12.0551 116.628 12.2421C116.803 12.3644 116.94 12.533 117.024 12.7288C117.109 12.9247 117.137 13.1402 117.105 13.3511V22.095H116.977L108.207 11.3142H104.995V11.9845H105.292C105.736 11.9626 106.179 12.0511 106.581 12.2421C106.754 12.3663 106.889 12.5352 106.973 12.7305C107.057 12.9259 107.087 13.1404 107.058 13.3511V22.9727C107.084 23.188 107.059 23.4064 106.986 23.6103C106.912 23.8142 106.791 23.9978 106.632 24.1462M91.8518 23.5785C93.2386 24.9414 95.1052 25.7051 97.0496 25.7051C98.994 25.7051 100.861 24.9414 102.247 23.5785C102.939 22.9115 103.487 22.1094 103.856 21.2219C104.226 20.3345 104.409 19.3806 104.394 18.4195C104.425 17.4613 104.256 16.5072 103.896 15.6186C103.536 14.73 102.994 13.9267 102.305 13.2605C101.62 12.6002 100.811 12.0824 99.9243 11.7372C99.0379 11.3921 98.0918 11.2264 97.1408 11.2498C96.176 11.2108 95.2131 11.3639 94.308 11.7003C93.4029 12.0367 92.5736 12.5496 91.8685 13.2092C91.1941 13.8836 90.6661 14.6898 90.3172 15.5775C89.9684 16.4651 89.8063 17.4151 89.8411 18.3682C89.8218 19.3246 89.9957 20.275 90.3525 21.1625C90.7093 22.05 91.2415 22.8563 91.9174 23.5332M93.2065 14.0929C93.6321 13.4656 94.2109 12.9575 94.8879 12.6167C95.565 12.2759 96.3179 12.1137 97.0752 12.1455C97.8348 12.098 98.5933 12.2534 99.2731 12.5956C99.9529 12.9378 100.53 13.4545 100.944 14.0929C101.798 15.3519 102.247 16.8412 102.233 18.3623C102.257 19.8684 101.806 21.3438 100.944 22.5791C100.517 23.2009 99.9362 23.7012 99.2581 24.0313C98.58 24.3613 97.8278 24.5098 97.0752 24.4622C96.3246 24.4951 95.5776 24.3401 94.9021 24.0113C94.2265 23.6825 93.6437 23.1902 93.2065 22.5791C92.3039 21.3599 91.824 19.8792 91.8399 18.3623C91.8329 16.8305 92.3113 15.3359 93.2065 14.0929ZM94.4921 8.42467C94.2891 8.61659 94.1688 8.88013 94.157 9.15929C94.157 9.29121 94.1872 9.42137 94.2453 9.53981C94.3034 9.65825 94.3878 9.76183 94.4921 9.84262C94.6966 10.0181 94.9573 10.1142 95.2267 10.1133C95.3567 10.1337 95.4896 10.1231 95.6146 10.0824C95.7397 10.0416 95.8534 9.97191 95.9464 9.87891C96.0394 9.78591 96.1091 9.67225 96.1498 9.54719C96.1905 9.42214 96.2012 9.28922 96.1808 9.15929C96.1773 8.89065 96.0817 8.63133 95.9101 8.42467C95.8314 8.31807 95.7283 8.23197 95.6093 8.17364C95.4904 8.11531 95.3592 8.08647 95.2267 8.08956C95.0875 8.09005 94.95 8.12019 94.8233 8.17797C94.6967 8.23575 94.5837 8.31985 94.4921 8.42467ZM98.2713 8.42467C98.0717 8.61778 97.9561 8.88164 97.9493 9.15929C97.9468 9.29028 97.9746 9.42009 98.0304 9.53862C98.0863 9.65714 98.1687 9.76117 98.2713 9.84262C98.4798 10.0201 98.7453 10.1162 99.0191 10.1133C99.2917 10.1097 99.5551 10.0143 99.7668 9.84262C99.8752 9.76485 99.9634 9.66221 100.024 9.54331C100.085 9.42442 100.116 9.29273 100.115 9.15929C100.092 8.87865 99.9679 8.61581 99.7667 8.41877C99.5655 8.22172 99.3001 8.10361 99.0191 8.08599C98.8776 8.08459 98.7376 8.11382 98.6085 8.17167C98.4794 8.22951 98.3644 8.3146 98.2713 8.42109M75.2156 24.5337H74.958V25.192H80.9554V24.5337H80.5809C79.3562 24.5337 78.7492 24.108 78.7492 23.2446V21.0121L81.2535 18.175L84.7871 23.2434C84.8086 23.3463 84.8526 23.4432 84.9159 23.5272C84.9986 23.6391 85.0437 23.7744 85.0447 23.9136C85.0447 24.1974 84.8646 24.3775 84.5283 24.4169C84.2423 24.4633 83.9534 24.4893 83.6637 24.4944H83.4192V25.1527H89.159V24.5337H88.9014C88.4732 24.5386 88.0589 24.3819 87.741 24.0949C87.4296 23.8034 87.1406 23.4889 86.8764 23.154L82.5415 16.7952L85.4179 13.468C85.7178 13.1055 86.0647 12.7847 86.4495 12.514C87.0067 12.1767 87.64 11.9855 88.2908 11.9582H88.4196V11.3142H82.8766V11.9725H83.0054C83.2479 11.982 83.4874 12.0299 83.715 12.1144C83.8387 12.147 83.9473 12.2213 84.0225 12.3247C84.0977 12.4282 84.1348 12.5544 84.1276 12.6821C84.1384 12.834 84.1071 12.9858 84.037 13.121C83.9688 13.2341 83.9124 13.354 83.8688 13.4787L78.878 19.5012H78.7503V13.3511C78.7203 13.1389 78.7503 12.9226 78.8369 12.7265C78.9235 12.5305 79.0633 12.3627 79.2405 12.2421C79.6432 12.0524 80.0847 11.9597 80.5296 11.9713H80.9041V11.3142H74.958V11.9725H75.2156C75.6611 11.9548 76.104 12.0478 76.5048 12.2432C76.6773 12.3675 76.8128 12.5364 76.8968 12.7317C76.9809 12.9271 77.0102 13.1416 76.9818 13.3523V23.2446C76.9818 24.0698 76.376 24.5337 75.1929 24.5337" fill="#0C93F4"/>
<path d="M82.2053 42.0981H78.1303L80.1815 36.9391L82.2053 42.0981ZM79.7677 35.7656L75.5508 45.5935H76.6336L77.8333 42.8208H82.5404L83.727 45.5935H84.8229L80.606 35.7656H79.7677Z" fill="#0C93F4"/>
<path d="M236.972 30.377H74.958" stroke="#0C93F4" stroke-width="0.57"/>
<path d="M229.569 40.5288V36.5695H230.445C231.392 36.4951 232.345 36.5691 233.269 36.7889C233.646 36.8873 233.978 37.11 234.212 37.4208C234.446 37.7316 234.569 38.1124 234.56 38.5014C234.562 38.9296 234.415 39.3452 234.144 39.6771C233.874 40.0089 233.496 40.2362 233.076 40.3201C232.232 40.5205 231.362 40.5901 230.496 40.5264L229.569 40.5288ZM228.537 35.8301V45.5936H229.569V41.3003H231.835L235.111 45.6341H236.408L233.069 41.1823C234.789 40.718 235.648 39.8581 235.648 38.6028C235.654 38.0261 235.46 37.4652 235.098 37.0161C234.736 36.5669 234.23 36.2573 233.665 36.1401C232.607 35.8795 231.514 35.7881 230.427 35.8694L228.537 35.8301Z" fill="#0C93F4"/>
<path d="M202.885 35.8301V41.6462C202.885 43.2716 202.885 43.4255 203.129 43.9287C203.633 45.0772 205.064 45.7474 206.998 45.7474C208.932 45.7474 210.39 45.0772 210.867 43.9287C211.086 43.4255 211.099 43.2705 211.099 41.6462V35.8301H210.068V41.6211C210.068 43.1941 210.068 43.4267 209.784 43.8524C209.446 44.2637 209.01 44.5842 208.517 44.7847C208.024 44.9853 207.489 45.0596 206.96 45.0009C206.025 45.0641 205.101 44.7652 204.38 44.1661C203.941 43.689 203.877 43.4314 203.864 41.5866V35.8301H202.885Z" fill="#0C93F4"/>
<path d="M178.135 35.8301V36.5647H181.295V45.5924H182.34V36.5647H185.487V35.8301H178.135Z" fill="#0C93F4"/>
<path d="M152.47 35.8301V45.5936H153.463V37.0811L159.525 45.5936H160.738V35.8301H159.771V44.3807L153.618 35.8301H152.47Z" fill="#0C93F4"/>
<path d="M129.66 40.171V36.5647H134.999V35.8301H128.61V45.5936H135.072V44.8577H129.66V40.9116H134.638V40.171H129.66Z" fill="#0C93F4"/>
<path d="M107.717 40.8098V41.5969H110.206V44.3827C109.312 44.796 108.339 45.0073 107.355 45.0016C106.438 45.0599 105.529 44.8051 104.776 44.2789C104.27 43.8373 103.872 43.2845 103.615 42.6639C103.357 42.0433 103.247 41.3716 103.292 40.7013C103.292 38.0311 104.736 36.408 107.097 36.408C107.735 36.3316 108.38 36.4895 108.911 36.8525C109.443 37.2154 109.824 37.7588 109.985 38.3817H111.003C110.681 36.6275 109.288 35.6734 107.135 35.6734C106.463 35.6223 105.789 35.7178 105.158 35.9533C104.528 36.1888 103.956 36.5586 103.482 37.0371C103.009 37.5156 102.645 38.0914 102.416 38.7245C102.187 39.3576 102.099 40.0329 102.157 40.7036C102.157 43.8758 104.065 45.747 107.316 45.747C108.668 45.802 110.009 45.476 111.185 44.806V40.8098H107.717Z" fill="#0C93F4"/>
</svg>
