<svg width="1919" height="420" viewBox="0 0 1919 420" fill="none" xmlns="http://www.w3.org/2000/svg">
<g clip-path="url(#clip0_1_2678)">
<path d="M-2.20139 239.143C30.6542 317.051 360.342 366.512 608.032 365.517C893.468 364.361 1001.05 296.468 1218.27 317.118C1416.49 335.94 1428.17 402.138 1573.9 412.571C1707.83 422.156 1919.75 382.134 2269 184.022" stroke="#C3E1FA" stroke-miterlimit="10"/>
<path d="M2252.35 175.243C1907.34 370.49 1695.3 412.059 1559.47 404.248C1458.8 398.414 1420.01 366.269 1341.24 341.142C1301.93 328.208 1253.58 318.724 1200.52 313.541C1026.75 296.521 923.171 334.191 737.474 350.351C690.142 354.518 641.501 356.819 592.554 357.208C343.853 359.453 17.8431 316.58 -20.1045 241.508" stroke="#C3E1FA" stroke-miterlimit="10"/>
<path d="M2235.66 166.49C1894.9 358.86 1682.85 401.962 1545.41 395.912C1444.37 391.462 1403.27 360.85 1324.35 337C1284.09 324.531 1235.81 315.284 1183.19 309.964C1011.92 292.662 908.378 326.595 722.035 342.002C674.679 345.95 626.222 348.257 577.438 348.885C327.686 352.125 5.39398 316.108 -37.6457 243.874" stroke="#C3E1FA" stroke-miterlimit="10"/>
<path d="M2219.01 157.764C1882.57 347.217 1670.4 391.838 1531.18 387.59C1429.71 384.498 1386.46 355.445 1307.25 332.859C1266.15 320.863 1217.97 311.847 1165.81 306.388C996.884 288.803 893.75 319.012 706.558 333.652C659.158 337.418 610.828 339.745 562.163 340.603C311.401 344.986 -7.17299 315.678 -55.3047 246.279" stroke="#C3E1FA" stroke-miterlimit="10"/>
<path d="M2202.36 148.974C1870.16 335.59 1658.04 381.703 1516.92 379.257C1415.12 377.509 1369.53 350.016 1290.08 328.734C1248.08 317.204 1199.93 308.41 1148.15 302.814C981.567 284.947 878.716 311.418 690.595 325.306C643.246 328.852 595.148 331.18 546.725 332.27C294.913 337.795 -19.9438 315.182 -73.2079 248.621" stroke="#C3E1FA" stroke-miterlimit="10"/>
<path d="M2185.87 140.207C1857.8 323.96 1645.55 372.87 1502.65 370.934C1400.65 369.589 1352.6 344.677 1272.98 324.592C1230.13 313.549 1182 304.978 1130.61 299.237C966.372 281.087 863.885 303.821 675.117 316.942C627.784 320.304 579.849 322.648 531.611 323.96C278.748 330.682 -32.3908 314.724 -90.7469 250.986" stroke="#C3E1FA" stroke-miterlimit="10"/>
<path d="M2169.02 131.443C1845.39 312.319 1633.3 361.336 1488.42 362.681C1386.1 363.461 1335.58 339.261 1255.85 320.44C1212.17 309.887 1164.06 301.534 1113.07 295.649C951.176 277.217 848.931 296.227 659.476 308.582C612.155 311.743 564.378 314.095 516.333 315.627C262.42 323.491 -45.0008 314.282 -108.449 253.34" stroke="#C3E1FA" stroke-miterlimit="10"/>
<path d="M2152.37 122.675C1833.11 300.687 1620.98 351.223 1474.16 354.275C1371.59 356.453 1318.49 333.961 1238.71 316.309C1194.26 306.258 1146.15 298.126 1095.53 292.11C936.023 273.382 834.021 288.641 643.838 300.27C599.586 302.959 552.343 305.54 501.059 307.355C246.054 316.403 -57.6078 313.795 -126.148 255.717" stroke="#C3E1FA" stroke-miterlimit="10"/>
<path d="M2135.72 113.912C1820.62 289.047 1608.65 340.968 1459.93 345.983C1357.08 349.438 1301.35 328.653 1221.5 312.198C1176.26 302.653 1128.12 294.726 1077.87 288.55C920.706 269.54 819.027 281.088 628.077 291.924C583.623 294.452 536.501 297.006 485.621 299.05C229.889 309.267 -70.2167 313.327 -143.849 258.099" stroke="#C3E1FA" stroke-miterlimit="10"/>
<path d="M2119.03 105.158C1808.21 277.416 1596.33 330.735 1445.67 337.619C1342.57 342.337 1284.02 323.314 1204.48 308.042C1158.53 299.009 1110.36 291.282 1060.49 284.945C905.631 265.653 804.236 273.464 612.557 283.6C568.103 285.967 520.942 288.521 470.466 290.779C213.4 302.234 -82.8263 312.935 -161.55 260.53" stroke="#C3E1FA" stroke-miterlimit="10"/>
<path d="M2102.38 96.3924C1795.85 265.787 1584 320.478 1431.52 329.297C1328.19 335.266 1266.96 318.031 1187.43 303.888C1140.76 295.386 1092.53 287.865 1043.04 281.369C890.558 261.794 789.445 265.881 596.999 275.185C552.343 277.363 505.302 279.93 455.271 282.391C197.154 295.082 -95.3135 312.398 -179.211 262.83" stroke="#C3E1FA" stroke-miterlimit="10"/>
<path d="M2085.73 87.6257C1783.44 254.144 1571.59 310.219 1417.18 320.974C1313.56 328.18 1249.63 312.76 1170.25 299.746C1124.63 292.271 1077.91 284.729 1025.42 277.792C875.281 257.948 774.451 258.284 581.278 266.835C536.501 268.838 489.541 271.419 439.833 274.081C180.666 288.009 -108.084 311.939 -197.033 265.195" stroke="#C3E1FA" stroke-miterlimit="10"/>
<path d="M2069.08 78.8606C1771.03 242.461 1559.47 299.934 1402.95 312.639C1299.05 321.095 1232.29 307.517 1153.12 295.605C1106.4 288.574 1059.56 281.247 1007.87 274.216C860.085 254.05 759.578 250.702 565.637 258.486C520.738 260.301 473.819 262.896 424.637 265.773C164.459 280.965 -120.613 311.483 -214.654 267.561" stroke="#C3E1FA" stroke-miterlimit="10"/>
<path d="M2052.51 70.0973C1758.67 230.875 1546.9 289.638 1388.73 304.306C1284.54 313.972 1214.95 302.289 1135.98 291.453C1088.14 284.893 1041.22 277.767 990.498 270.629C845.012 250.22 744.869 243.095 549.998 250.113C504.938 251.767 458.14 254.375 409.361 257.44C148.133 273.922 -133.221 311.028 -232.354 269.929" stroke="#C3E1FA" stroke-miterlimit="10"/>
<path d="M2035.73 61.3448C1746.26 219.245 1534.62 279.313 1374.46 295.984C1269.95 306.873 1197.57 297.099 1118.89 287.326C1069.91 281.249 1022.83 274.298 972.796 267.065C829.735 246.375 729.794 235.526 534.357 241.777C487.237 243.448 440.404 245.921 394.044 249.185C131.845 266.891 -145.953 310.544 -250.056 272.309" stroke="#C3E1FA" stroke-miterlimit="10"/>
<path d="M2019.09 52.5819C1733.85 207.605 1522.01 269.031 1360.36 287.664C1255.53 299.764 1180.32 291.926 1101.71 283.188C1051.6 277.608 1004.44 270.832 955.258 263.492C814.5 242.519 714.882 227.933 518.799 233.431C471.72 234.899 424.973 237.373 378.85 240.839C115.56 259.943 -158.439 310.089 -267.796 274.731" stroke="#C3E1FA" stroke-miterlimit="10"/>
<path d="M2002.43 43.813C1721.48 195.973 1509.4 258.649 1345.97 279.339C1240.9 292.622 1162.82 286.774 1084.62 279.057C1033.38 273.988 986.133 267.347 937.758 259.912C799.385 238.657 700.01 220.347 503.078 225.079C456.042 226.361 409.374 228.851 363.492 232.527C99.3137 252.895 -171.048 309.615 -285.497 277.04" stroke="#C3E1FA" stroke-miterlimit="10"/>
<path d="M1985.74 35.049C1709.08 184.278 1497.11 248.312 1331.74 271.005C1226.22 285.498 1145.44 281.653 1067.52 274.918C1014.99 270.387 967.784 263.88 920.218 256.338C784.189 234.827 685.137 212.752 487.437 216.718C440.449 217.822 393.855 220.328 348.215 224.207C83.0664 245.905 -183.658 309.159 -303.199 279.408" stroke="#C3E1FA" stroke-miterlimit="10"/>
<path d="M1969.09 26.2814C1696.87 172.7 1484.59 237.944 1317.48 262.628C1211.6 278.303 1128.1 276.488 1050.39 270.694C996.843 266.661 949.358 260.315 902.681 252.679C768.995 230.859 670.226 205.074 471.799 208.314C424.862 209.24 378.333 211.762 332.941 215.842C66.8224 238.885 -196.467 308.606 -320.898 281.718" stroke="#C3E1FA" stroke-miterlimit="10"/>
<path d="M1952.44 17.5206C1684.3 161.063 1472.02 227.584 1303.25 254.351C1196.93 271.223 1110.77 271.465 1033.25 266.639C978.575 263.224 931.05 256.919 885.141 249.161C753.84 227.059 655.353 197.55 456.158 199.997C409.272 200.738 362.799 203.278 317.664 207.566C50.6157 231.993 -208.875 308.235 -338.6 284.143" stroke="#C3E1FA" stroke-miterlimit="10"/>
<path d="M1935.75 8.76647C1671.9 149.431 1459.45 217.149 1289.15 246.027C1182.42 264.069 1093.63 266.395 1016.32 262.496C960.509 259.686 912.863 253.448 867.802 245.623C738.805 223.226 640.601 189.979 440.679 191.673C393.836 192.243 347.404 194.8 302.508 199.282C34.7321 225.202 -221.324 307.762 -356.222 286.52" stroke="#C3E1FA" stroke-miterlimit="10"/>
<path d="M1919.15 -0.000743082C1497.88 223.641 1200.12 266.151 999.026 258.353C779.504 249.843 695.728 182.072 424.881 183.309C107.155 184.774 -210.368 310.422 -374 288.885" stroke="#C3E1FA" stroke-miterlimit="10"/>
</g>
<defs>
<clipPath id="clip0_1_2678">
<rect width="1919" height="420" fill="white" transform="matrix(-1 0 0 -1 1919 420)"/>
</clipPath>
</defs>
</svg>
